<?xml version="1.0" standalone="no"?>
<!DOCTYPE svg PUBLIC "-//W3C//DTD SVG 20010904//EN"
 "http://www.w3.org/TR/2001/REC-SVG-20010904/DTD/svg10.dtd">
<svg version="1.0" xmlns="http://www.w3.org/2000/svg"
 width="691.000000pt" height="691.000000pt" viewBox="0 0 691.000000 691.000000"
 preserveAspectRatio="xMidYMid meet">
<metadata>
Created by potrace 1.14, written by Peter Selinger 2001-2017
</metadata>
<g transform="translate(0.000000,691.000000) scale(0.100000,-0.100000)"
fill="#000000" stroke="none">
<path d="M3083 6781 c-18 -5 -43 -15 -55 -23 -39 -25 -70 -28 -120 -12 -56 19
-126 10 -254 -32 -158 -51 -314 -151 -314 -200 0 -15 -30 -40 -60 -49 -40 -12
-77 -44 -96 -84 l-17 -36 -186 -1 c-156 0 -200 -4 -276 -22 -49 -12 -99 -26
-110 -30 -201 -82 -339 -221 -389 -391 -22 -74 -21 -244 0 -319 15 -49 143
-319 166 -347 18 -22 98 -144 98 -149 0 -3 -19 -32 -43 -63 -39 -53 -97 -161
-97 -182 0 -5 -20 -46 -44 -92 -25 -46 -52 -110 -60 -143 -42 -160 -65 -492
-47 -676 4 -47 7 -86 7 -87 -1 -1 -45 -11 -97 -22 -53 -11 -150 -42 -215 -69
-65 -28 -129 -53 -141 -56 -31 -10 -43 -28 -58 -93 -21 -87 -19 -135 7 -169
22 -27 23 -39 29 -289 4 -143 10 -273 13 -290 4 -16 12 -50 17 -74 38 -169
151 -300 312 -360 20 -8 27 -16 23 -29 -11 -34 -26 -199 -26 -282 0 -222 55
-467 158 -700 47 -108 156 -302 173 -308 5 -2 9 -8 9 -13 0 -6 5 -15 10 -22 6
-7 36 -50 67 -97 59 -88 120 -167 179 -232 19 -20 34 -40 34 -43 0 -4 14 -20
30 -37 17 -16 30 -36 30 -44 0 -8 5 -14 11 -14 6 0 84 -73 173 -162 201 -204
206 -207 417 -317 167 -87 244 -110 392 -117 67 -3 151 -1 187 5 203 31 492
102 661 162 74 27 140 49 146 49 5 0 23 6 39 14 16 8 52 24 79 36 204 88 456
225 600 325 33 23 92 64 130 91 69 48 170 128 231 181 17 16 52 46 78 68 62
52 297 284 411 405 115 122 216 212 271 241 45 23 59 23 189 0 94 -17 150 10
245 118 65 74 168 296 206 443 9 35 19 70 24 79 30 59 60 255 60 395 0 115
-13 182 -49 260 -52 112 -136 173 -222 161 -47 -6 -46 -21 -13 193 14 91 27
188 28 216 2 28 9 97 15 155 22 198 28 315 27 521 0 115 2 208 5 208 4 0 3 17
-2 38 -6 20 -14 66 -19 102 -13 91 -55 231 -96 317 -19 40 -34 77 -34 82 0 5
-6 11 -14 14 -7 3 -16 25 -20 49 -4 24 -9 59 -12 78 -3 19 -10 53 -16 75 -6
22 -13 46 -14 54 -8 42 -79 162 -122 207 -46 47 -50 55 -56 115 -3 35 -8 75
-11 89 -3 14 -8 41 -11 60 -14 76 -49 154 -120 265 -58 92 -90 122 -257 246
-67 50 -137 111 -155 135 -19 26 -67 67 -120 101 -48 31 -99 65 -114 75 -15
10 -30 18 -34 18 -3 0 -18 8 -32 19 -68 48 -281 144 -422 189 -323 104 -458
123 -925 128 -198 2 -375 0 -392 -5z m-1868 -3120 c4 -44 4 -92 1 -108 -3 -15
-15 -131 -26 -258 -29 -325 -83 -770 -95 -783 -4 -5 -124 55 -143 71 -24 19
-81 113 -98 158 -34 97 -44 188 -39 394 2 115 10 232 19 275 8 41 17 90 21
109 4 19 19 57 33 84 22 40 38 56 82 78 30 16 62 28 70 27 8 -2 21 1 27 5 14
9 86 24 119 26 20 1 22 -6 29 -78z"/>
</g>
</svg>
